<svg width="25" height="24" viewBox="0 0 25 24" fill="none" xmlns="http://www.w3.org/2000/svg">
<path d="M12.8 15C13.61 15 14.3 14.7 14.91 14.11C15.5 13.5 15.8 12.81 15.8 12C15.8 11.19 15.5 10.5 14.91 9.89C14.3 9.3 13.61 9 12.8 9C11.99 9 11.3 9.3 10.69 9.89C10.1 10.5 9.80005 11.19 9.80005 12C9.80005 12.81 10.1 13.5 10.69 14.11C11.3 14.7 11.99 15 12.8 15ZM12.8 2C15.55 2 17.9 3 19.85 4.95C21.8 6.9 22.8 9.25 22.8 12V13.45C22.8 14.45 22.45 15.3 21.8 16C21.1 16.67 20.3 17 19.3 17C18.1 17 17.11 16.5 16.36 15.5C15.36 16.5 14.18 17 12.8 17C11.43 17 10.25 16.5 9.26005 15.54C8.30005 14.55 7.80005 13.38 7.80005 12C7.80005 10.63 8.30005 9.45 9.26005 8.46C10.25 7.5 11.43 7 12.8 7C14.18 7 15.35 7.5 16.34 8.46C17.3 9.45 17.8 10.63 17.8 12V13.45C17.8 13.86 17.96 14.22 18.26 14.53C18.56 14.84 18.91 15 19.3 15C19.72 15 20.07 14.84 20.37 14.53C20.67 14.22 20.8 13.86 20.8 13.45V12C20.8 9.81 20.03 7.93 18.45 6.35C16.87 4.77 14.99 4 12.8 4C10.61 4 8.73005 4.77 7.15005 6.35C5.57005 7.93 4.80005 9.81 4.80005 12C4.80005 14.19 5.57005 16.07 7.15005 17.65C8.73005 19.23 10.61 20 12.8 20H17.8V22H12.8C10.05 22 7.70005 21 5.75005 19.05C3.80005 17.1 2.80005 14.75 2.80005 12C2.80005 9.25 3.80005 6.9 5.75005 4.95C7.70005 3 10.05 2 12.8 2Z" fill="#555555"/>
</svg>
