<svg width="25" height="24" viewBox="0 0 25 24" fill="none" xmlns="http://www.w3.org/2000/svg">
<path d="M12.8 17C12.2696 17 11.7609 16.7893 11.3858 16.4142C11.0108 16.0391 10.8 15.5304 10.8 15C10.8 13.89 11.69 13 12.8 13C13.3305 13 13.8392 13.2107 14.2143 13.5858C14.5893 13.9609 14.8 14.4696 14.8 15C14.8 15.5304 14.5893 16.0391 14.2143 16.4142C13.8392 16.7893 13.3305 17 12.8 17ZM18.8 20V10H6.80005V20H18.8ZM18.8 8C19.3305 8 19.8392 8.21071 20.2143 8.58579C20.5893 8.96086 20.8 9.46957 20.8 10V20C20.8 20.5304 20.5893 21.0391 20.2143 21.4142C19.8392 21.7893 19.3305 22 18.8 22H6.80005C6.26962 22 5.76091 21.7893 5.38584 21.4142C5.01076 21.0391 4.80005 20.5304 4.80005 20V10C4.80005 8.89 5.69005 8 6.80005 8H7.80005V6C7.80005 4.67392 8.32683 3.40215 9.26451 2.46447C10.2022 1.52678 11.474 1 12.8 1C13.4567 1 14.1068 1.12933 14.7135 1.3806C15.3201 1.63188 15.8713 2.00017 16.3356 2.46447C16.7999 2.92876 17.1682 3.47995 17.4194 4.08658C17.6707 4.69321 17.8 5.34339 17.8 6V8H18.8ZM12.8 3C12.0044 3 11.2413 3.31607 10.6787 3.87868C10.1161 4.44129 9.80005 5.20435 9.80005 6V8H15.8V6C15.8 5.20435 15.484 4.44129 14.9214 3.87868C14.3588 3.31607 13.5957 3 12.8 3Z" fill="#555555"/>
</svg>
